<svg width="134" height="22" viewBox="0 0 134 22" fill="none" xmlns="http://www.w3.org/2000/svg">
<path d="M12.8559 3.15C12.9959 3.37 13.1159 3.67 13.2159 4.05C13.3359 4.41 13.3959 4.79 13.3959 5.19C13.3959 5.97 13.2259 6.53 12.8859 6.87C12.5659 7.19 12.1259 7.35 11.5659 7.35H5.26593V10.74H11.8359C11.9959 10.96 12.1259 11.25 12.2259 11.61C12.3459 11.97 12.4059 12.35 12.4059 12.75C12.4059 13.51 12.2359 14.06 11.8959 14.4C11.5759 14.72 11.1359 14.88 10.5759 14.88H5.32593V21.21C5.10593 21.27 4.75593 21.33 4.27593 21.39C3.81593 21.45 3.35593 21.48 2.89593 21.48C2.43593 21.48 2.02593 21.44 1.66593 21.36C1.32593 21.3 1.03593 21.18 0.795928 21C0.555928 20.82 0.375928 20.57 0.255928 20.25C0.135928 19.93 0.0759277 19.51 0.0759277 18.99V5.94C0.0759277 5.08 0.325928 4.4 0.825928 3.9C1.32593 3.4 2.00593 3.15 2.86593 3.15H12.8559Z" fill="white"/>
<path d="M15.2691 2.7C15.2691 1.94 15.5191 1.3 16.0191 0.779999C16.5391 0.26 17.2191 0 18.0591 0C18.8991 0 19.5691 0.26 20.0691 0.779999C20.5891 1.3 20.8491 1.94 20.8491 2.7C20.8491 3.46 20.5891 4.1 20.0691 4.62C19.5691 5.14 18.8991 5.4 18.0591 5.4C17.2191 5.4 16.5391 5.14 16.0191 4.62C15.5191 4.1 15.2691 3.46 15.2691 2.7ZM20.6091 21.3C20.3891 21.34 20.0591 21.39 19.6191 21.45C19.1991 21.53 18.7691 21.57 18.3291 21.57C17.8891 21.57 17.4891 21.54 17.1291 21.48C16.7891 21.42 16.4991 21.3 16.2591 21.12C16.0191 20.94 15.8291 20.7 15.6891 20.4C15.5691 20.08 15.5091 19.67 15.5091 19.17V6.96C15.7291 6.92 16.0491 6.87 16.4691 6.81C16.9091 6.73 17.3491 6.69 17.7891 6.69C18.2291 6.69 18.6191 6.72 18.9591 6.78C19.3191 6.84 19.6191 6.96 19.8591 7.14C20.0991 7.32 20.2791 7.57 20.3991 7.89C20.5391 8.19 20.6091 8.59 20.6091 9.09V21.3Z" fill="white"/>
<path d="M29.0458 21.3C28.8258 21.34 28.4958 21.39 28.0558 21.45C27.6358 21.53 27.2058 21.57 26.7658 21.57C26.3258 21.57 25.9258 21.54 25.5658 21.48C25.2258 21.42 24.9358 21.3 24.6958 21.12C24.4558 20.94 24.2658 20.7 24.1258 20.4C24.0058 20.08 23.9458 19.67 23.9458 19.17V1.77C24.1658 1.73 24.4858 1.68 24.9058 1.62C25.3458 1.54 25.7858 1.5 26.2258 1.5C26.6658 1.5 27.0558 1.53 27.3958 1.59C27.7558 1.65 28.0558 1.77 28.2958 1.95C28.5358 2.13 28.7158 2.38 28.8358 2.7C28.9758 3 29.0458 3.4 29.0458 3.9V21.3Z" fill="white"/>
<path d="M39.2541 6.3C40.0741 6.3 40.8741 6.42 41.6541 6.66C42.4541 6.88 43.1441 7.22 43.7241 7.68C44.3241 7.28 44.9941 6.95 45.7341 6.69C46.4941 6.43 47.4041 6.3 48.4641 6.3C49.2241 6.3 49.9641 6.4 50.6841 6.6C51.4241 6.8 52.0741 7.12 52.6341 7.56C53.2141 7.98 53.6741 8.55 54.0141 9.27C54.3541 9.97 54.5241 10.83 54.5241 11.85V21.3C54.3241 21.36 54.0041 21.42 53.5641 21.48C53.1441 21.54 52.7041 21.57 52.2441 21.57C51.8041 21.57 51.4041 21.54 51.0441 21.48C50.7041 21.42 50.4141 21.3 50.1741 21.12C49.9341 20.94 49.7441 20.7 49.6041 20.4C49.4841 20.08 49.4241 19.67 49.4241 19.17V12C49.4241 11.4 49.2541 10.97 48.9141 10.71C48.5741 10.43 48.1141 10.29 47.5341 10.29C47.2541 10.29 46.9541 10.36 46.6341 10.5C46.3141 10.62 46.0741 10.75 45.9141 10.89C45.9341 10.97 45.9441 11.05 45.9441 11.13C45.9441 11.19 45.9441 11.25 45.9441 11.31V21.3C45.7241 21.36 45.3941 21.42 44.9541 21.48C44.5341 21.54 44.104 21.57 43.6641 21.57C43.2241 21.57 42.8241 21.54 42.4641 21.48C42.1241 21.42 41.8341 21.3 41.5941 21.12C41.354 20.94 41.1641 20.7 41.0241 20.4C40.9041 20.08 40.8441 19.67 40.8441 19.17V12C40.8441 11.4 40.6541 10.97 40.2741 10.71C39.9141 10.43 39.4741 10.29 38.9541 10.29C38.5941 10.29 38.284 10.35 38.0241 10.47C37.7641 10.57 37.5441 10.67 37.3641 10.77V21.3C37.1641 21.36 36.8441 21.42 36.4041 21.48C35.9841 21.54 35.5441 21.57 35.0841 21.57C34.6441 21.57 34.2441 21.54 33.8841 21.48C33.5441 21.42 33.2541 21.3 33.0141 21.12C32.7741 20.94 32.5841 20.7 32.4441 20.4C32.3241 20.08 32.2641 19.67 32.2641 19.17V10.11C32.2641 9.57 32.3741 9.14 32.5941 8.82C32.8341 8.5 33.154 8.2 33.5541 7.92C34.2341 7.44 35.0741 7.05 36.0741 6.75C37.0941 6.45 38.154 6.3 39.2541 6.3Z" fill="white"/>
<path d="M72.7252 14.04C72.7252 15.28 72.5351 16.39 72.1552 17.37C71.7752 18.33 71.2351 19.14 70.5351 19.8C69.8551 20.46 69.0351 20.96 68.0751 21.3C67.1152 21.64 66.0452 21.81 64.8652 21.81C63.6852 21.81 62.6151 21.63 61.6551 21.27C60.6951 20.91 59.8651 20.4 59.1651 19.74C58.4851 19.06 57.9551 18.24 57.5751 17.28C57.1951 16.32 57.0051 15.24 57.0051 14.04C57.0051 12.86 57.1951 11.79 57.5751 10.83C57.9551 9.87 58.4851 9.06 59.1651 8.4C59.8651 7.72 60.6951 7.2 61.6551 6.84C62.6151 6.48 63.6852 6.3 64.8652 6.3C66.0452 6.3 67.1152 6.49 68.0751 6.87C69.0351 7.23 69.8551 7.75 70.5351 8.43C71.2351 9.09 71.7752 9.9 72.1552 10.86C72.5351 11.82 72.7252 12.88 72.7252 14.04ZM62.2251 14.04C62.2251 15.26 62.4552 16.2 62.9151 16.86C63.3951 17.5 64.0551 17.82 64.8951 17.82C65.7352 17.82 66.3751 17.49 66.8151 16.83C67.2751 16.17 67.5051 15.24 67.5051 14.04C67.5051 12.84 67.2751 11.92 66.8151 11.28C66.3551 10.62 65.7051 10.29 64.8652 10.29C64.0252 10.29 63.3751 10.62 62.9151 11.28C62.4552 11.92 62.2251 12.84 62.2251 14.04Z" fill="white"/>
<path d="M80.3133 16.32C80.3133 16.84 80.4733 17.21 80.7933 17.43C81.1333 17.65 81.6033 17.76 82.2033 17.76C82.5033 17.76 82.8133 17.74 83.1333 17.7C83.4533 17.64 83.7333 17.57 83.9733 17.49C84.1533 17.71 84.3033 17.96 84.4233 18.24C84.5633 18.5 84.6333 18.82 84.6333 19.2C84.6333 19.96 84.3433 20.58 83.7633 21.06C83.2033 21.54 82.2033 21.78 80.7633 21.78C79.0033 21.78 77.6433 21.38 76.6833 20.58C75.7433 19.78 75.2733 18.48 75.2733 16.68V3.84C75.4933 3.78 75.8033 3.72 76.2033 3.66C76.6233 3.58 77.0633 3.54 77.5233 3.54C78.4033 3.54 79.0833 3.7 79.5633 4.02C80.0633 4.32 80.3133 4.97 80.3133 5.97V7.89H84.2433C84.3633 8.11 84.4733 8.39 84.5733 8.73C84.6933 9.05 84.7533 9.41 84.7533 9.81C84.7533 10.51 84.5933 11.02 84.2733 11.34C83.9733 11.64 83.5633 11.79 83.0433 11.79H80.3133V16.32Z" fill="white"/>
<path d="M94.7592 21.81C93.5792 21.81 92.4792 21.65 91.4592 21.33C90.4592 20.99 89.5792 20.49 88.8192 19.83C88.0792 19.17 87.4892 18.34 87.0492 17.34C86.6292 16.34 86.4192 15.17 86.4192 13.83C86.4192 12.51 86.6292 11.38 87.0492 10.44C87.4892 9.48 88.0592 8.7 88.7592 8.1C89.4592 7.48 90.2592 7.03 91.1592 6.75C92.0592 6.45 92.9792 6.3 93.9192 6.3C94.9792 6.3 95.9392 6.46 96.7992 6.78C97.6792 7.1 98.4292 7.54 99.0492 8.1C99.6892 8.66 100.179 9.33 100.519 10.11C100.879 10.89 101.059 11.74 101.059 12.66C101.059 13.34 100.869 13.86 100.489 14.22C100.109 14.58 99.5792 14.81 98.8992 14.91L91.4892 16.02C91.7092 16.68 92.1592 17.18 92.8392 17.52C93.5192 17.84 94.2992 18 95.1792 18C95.9992 18 96.7692 17.9 97.4892 17.7C98.2292 17.48 98.8292 17.23 99.2892 16.95C99.6092 17.15 99.8792 17.43 100.099 17.79C100.319 18.15 100.429 18.53 100.429 18.93C100.429 19.83 100.009 20.5 99.1692 20.94C98.5292 21.28 97.8092 21.51 97.0092 21.63C96.2092 21.75 95.4592 21.81 94.7592 21.81ZM93.9192 10.02C93.4392 10.02 93.0192 10.1 92.6592 10.26C92.3192 10.42 92.0392 10.63 91.8192 10.89C91.5992 11.13 91.4292 11.41 91.3092 11.73C91.2092 12.03 91.1492 12.34 91.1292 12.66L96.2592 11.82C96.1992 11.42 95.9792 11.02 95.5992 10.62C95.2192 10.22 94.6592 10.02 93.9192 10.02Z" fill="white"/>
<path d="M117.764 18.69C117.664 19.63 117.384 20.35 116.924 20.85C116.484 21.35 115.834 21.6 114.974 21.6C114.334 21.6 113.764 21.45 113.264 21.15C112.764 20.83 112.224 20.3 111.644 19.56L108.674 15.84V21.3C108.454 21.34 108.124 21.39 107.684 21.45C107.264 21.53 106.834 21.57 106.394 21.57C105.954 21.57 105.554 21.54 105.194 21.48C104.854 21.42 104.564 21.3 104.324 21.12C104.084 20.94 103.894 20.7 103.754 20.4C103.634 20.08 103.574 19.67 103.574 19.17V1.8C103.794 1.74 104.114 1.68 104.534 1.62C104.974 1.54 105.414 1.5 105.854 1.5C106.294 1.5 106.684 1.53 107.024 1.59C107.384 1.65 107.684 1.77 107.924 1.95C108.164 2.13 108.344 2.38 108.464 2.7C108.604 3 108.674 3.4 108.674 3.9V11.82L113.834 6.54C114.874 6.54 115.704 6.77 116.324 7.23C116.964 7.69 117.284 8.27 117.284 8.97C117.284 9.27 117.234 9.55 117.134 9.81C117.034 10.05 116.874 10.3 116.654 10.56C116.454 10.82 116.184 11.1 115.844 11.4C115.524 11.68 115.144 12.01 114.704 12.39L112.964 13.89L117.764 18.69Z" fill="white"/>
<path d="M126.453 18.09C126.793 18.09 127.163 18.06 127.563 18C127.983 17.92 128.293 17.82 128.493 17.7V15.3L126.333 15.48C125.773 15.52 125.313 15.64 124.953 15.84C124.593 16.04 124.413 16.34 124.413 16.74C124.413 17.14 124.563 17.47 124.863 17.73C125.183 17.97 125.713 18.09 126.453 18.09ZM126.213 6.3C127.293 6.3 128.273 6.41 129.153 6.63C130.053 6.85 130.813 7.19 131.433 7.65C132.073 8.09 132.563 8.66 132.903 9.36C133.243 10.04 133.413 10.85 133.413 11.79V18.51C133.413 19.03 133.263 19.46 132.963 19.8C132.683 20.12 132.343 20.4 131.943 20.64C130.643 21.42 128.813 21.81 126.453 21.81C125.393 21.81 124.433 21.71 123.573 21.51C122.733 21.31 122.003 21.01 121.383 20.61C120.783 20.21 120.313 19.7 119.973 19.08C119.653 18.46 119.493 17.74 119.493 16.92C119.493 15.54 119.903 14.48 120.723 13.74C121.543 13 122.813 12.54 124.533 12.36L128.463 11.94V11.73C128.463 11.15 128.203 10.74 127.683 10.5C127.183 10.24 126.453 10.11 125.493 10.11C124.733 10.11 123.993 10.19 123.273 10.35C122.553 10.51 121.903 10.71 121.323 10.95C121.063 10.77 120.843 10.5 120.663 10.14C120.483 9.76 120.393 9.37 120.393 8.97C120.393 8.45 120.513 8.04 120.753 7.74C121.013 7.42 121.403 7.15 121.923 6.93C122.503 6.71 123.183 6.55 123.963 6.45C124.763 6.35 125.513 6.3 126.213 6.3Z" fill="white"/>
</svg>
