<svg width="167" height="24" viewBox="0 0 167 24" fill="none" xmlns="http://www.w3.org/2000/svg">
<path d="M45.8559 4.15C45.9959 4.37 46.1159 4.67 46.2159 5.05C46.3359 5.41 46.3959 5.79 46.3959 6.19C46.3959 6.97 46.2259 7.53 45.8859 7.87C45.5659 8.19 45.1259 8.35 44.5659 8.35H38.2659V11.74H44.8359C44.9959 11.96 45.1259 12.25 45.2259 12.61C45.3459 12.97 45.4059 13.35 45.4059 13.75C45.4059 14.51 45.2359 15.06 44.8959 15.4C44.5759 15.72 44.1359 15.88 43.5759 15.88H38.3259V22.21C38.1059 22.27 37.7559 22.33 37.2759 22.39C36.8159 22.45 36.3559 22.48 35.8959 22.48C35.4359 22.48 35.0259 22.44 34.6659 22.36C34.3259 22.3 34.0359 22.18 33.7959 22C33.5559 21.82 33.3759 21.57 33.2559 21.25C33.1359 20.93 33.0759 20.51 33.0759 19.99V6.94C33.0759 6.08 33.3259 5.4 33.8259 4.9C34.3259 4.4 35.0059 4.15 35.8659 4.15H45.8559Z" fill="white"/>
<path d="M48.2691 3.7C48.2691 2.94 48.5191 2.3 49.0191 1.78C49.5391 1.26 50.2191 1 51.0591 1C51.8991 1 52.5691 1.26 53.0691 1.78C53.5891 2.3 53.8491 2.94 53.8491 3.7C53.8491 4.46 53.5891 5.1 53.0691 5.62C52.5691 6.14 51.8991 6.4 51.0591 6.4C50.2191 6.4 49.5391 6.14 49.0191 5.62C48.5191 5.1 48.2691 4.46 48.2691 3.7ZM53.6091 22.3C53.3891 22.34 53.0591 22.39 52.6191 22.45C52.1991 22.53 51.7691 22.57 51.3291 22.57C50.8891 22.57 50.4891 22.54 50.1291 22.48C49.7891 22.42 49.4991 22.3 49.2591 22.12C49.0191 21.94 48.8291 21.7 48.6891 21.4C48.5691 21.08 48.5091 20.67 48.5091 20.17V7.96C48.7291 7.92 49.0491 7.87 49.4691 7.81C49.9091 7.73 50.3491 7.69 50.7891 7.69C51.2291 7.69 51.6191 7.72 51.9591 7.78C52.3191 7.84 52.6191 7.96 52.8591 8.14C53.0991 8.32 53.2791 8.57 53.3991 8.89C53.5391 9.19 53.6091 9.59 53.6091 10.09V22.3Z" fill="white"/>
<path d="M62.0458 22.3C61.8258 22.34 61.4958 22.39 61.0558 22.45C60.6358 22.53 60.2058 22.57 59.7658 22.57C59.3258 22.57 58.9258 22.54 58.5658 22.48C58.2258 22.42 57.9358 22.3 57.6958 22.12C57.4558 21.94 57.2658 21.7 57.1258 21.4C57.0058 21.08 56.9458 20.67 56.9458 20.17V2.77C57.1658 2.73 57.4858 2.68 57.9058 2.62C58.3458 2.54 58.7858 2.5 59.2258 2.5C59.6658 2.5 60.0558 2.53 60.3958 2.59C60.7558 2.65 61.0558 2.77 61.2958 2.95C61.5358 3.13 61.7158 3.38 61.8358 3.7C61.9758 4 62.0458 4.4 62.0458 4.9V22.3Z" fill="white"/>
<path d="M72.2541 7.3C73.0741 7.3 73.8741 7.42 74.6541 7.66C75.4541 7.88 76.1441 8.22 76.7241 8.68C77.3241 8.28 77.9941 7.95 78.7341 7.69C79.4941 7.43 80.4041 7.3 81.4641 7.3C82.2241 7.3 82.9641 7.4 83.6841 7.6C84.4241 7.8 85.0741 8.12 85.6341 8.56C86.2141 8.98 86.6741 9.55 87.0141 10.27C87.3541 10.97 87.5241 11.83 87.5241 12.85V22.3C87.3241 22.36 87.0041 22.42 86.5641 22.48C86.1441 22.54 85.7041 22.57 85.2441 22.57C84.8041 22.57 84.4041 22.54 84.0441 22.48C83.7041 22.42 83.4141 22.3 83.1741 22.12C82.9341 21.94 82.7441 21.7 82.6041 21.4C82.4841 21.08 82.4241 20.67 82.4241 20.17V13C82.4241 12.4 82.2541 11.97 81.9141 11.71C81.5741 11.43 81.1141 11.29 80.5341 11.29C80.2541 11.29 79.9541 11.36 79.6341 11.5C79.3141 11.62 79.0741 11.75 78.9141 11.89C78.9341 11.97 78.9441 12.05 78.9441 12.13C78.9441 12.19 78.9441 12.25 78.9441 12.31V22.3C78.7241 22.36 78.3941 22.42 77.9541 22.48C77.5341 22.54 77.104 22.57 76.6641 22.57C76.2241 22.57 75.8241 22.54 75.4641 22.48C75.1241 22.42 74.8341 22.3 74.5941 22.12C74.354 21.94 74.1641 21.7 74.0241 21.4C73.9041 21.08 73.8441 20.67 73.8441 20.17V13C73.8441 12.4 73.6541 11.97 73.2741 11.71C72.9141 11.43 72.4741 11.29 71.9541 11.29C71.5941 11.29 71.284 11.35 71.0241 11.47C70.7641 11.57 70.5441 11.67 70.3641 11.77V22.3C70.1641 22.36 69.8441 22.42 69.4041 22.48C68.9841 22.54 68.5441 22.57 68.0841 22.57C67.6441 22.57 67.2441 22.54 66.8841 22.48C66.5441 22.42 66.2541 22.3 66.0141 22.12C65.7741 21.94 65.5841 21.7 65.4441 21.4C65.3241 21.08 65.2641 20.67 65.2641 20.17V11.11C65.2641 10.57 65.3741 10.14 65.5941 9.82C65.8341 9.5 66.154 9.2 66.5541 8.92C67.2341 8.44 68.0741 8.05 69.0741 7.75C70.0941 7.45 71.154 7.3 72.2541 7.3Z" fill="white"/>
<path d="M105.725 15.04C105.725 16.28 105.535 17.39 105.155 18.37C104.775 19.33 104.235 20.14 103.535 20.8C102.855 21.46 102.035 21.96 101.075 22.3C100.115 22.64 99.0452 22.81 97.8652 22.81C96.6852 22.81 95.6151 22.63 94.6551 22.27C93.6951 21.91 92.8651 21.4 92.1651 20.74C91.4851 20.06 90.9551 19.24 90.5751 18.28C90.1951 17.32 90.0051 16.24 90.0051 15.04C90.0051 13.86 90.1951 12.79 90.5751 11.83C90.9551 10.87 91.4851 10.06 92.1651 9.4C92.8651 8.72 93.6951 8.2 94.6551 7.84C95.6151 7.48 96.6852 7.3 97.8652 7.3C99.0452 7.3 100.115 7.49 101.075 7.87C102.035 8.23 102.855 8.75 103.535 9.43C104.235 10.09 104.775 10.9 105.155 11.86C105.535 12.82 105.725 13.88 105.725 15.04ZM95.2251 15.04C95.2251 16.26 95.4552 17.2 95.9151 17.86C96.3951 18.5 97.0551 18.82 97.8951 18.82C98.7352 18.82 99.3751 18.49 99.8151 17.83C100.275 17.17 100.505 16.24 100.505 15.04C100.505 13.84 100.275 12.92 99.8151 12.28C99.3551 11.62 98.7051 11.29 97.8652 11.29C97.0252 11.29 96.3751 11.62 95.9151 12.28C95.4552 12.92 95.2251 13.84 95.2251 15.04Z" fill="white"/>
<path d="M113.313 17.32C113.313 17.84 113.473 18.21 113.793 18.43C114.133 18.65 114.603 18.76 115.203 18.76C115.503 18.76 115.813 18.74 116.133 18.7C116.453 18.64 116.733 18.57 116.973 18.49C117.153 18.71 117.303 18.96 117.423 19.24C117.563 19.5 117.633 19.82 117.633 20.2C117.633 20.96 117.343 21.58 116.763 22.06C116.203 22.54 115.203 22.78 113.763 22.78C112.003 22.78 110.643 22.38 109.683 21.58C108.743 20.78 108.273 19.48 108.273 17.68V4.84C108.493 4.78 108.803 4.72 109.203 4.66C109.623 4.58 110.063 4.54 110.523 4.54C111.403 4.54 112.083 4.7 112.563 5.02C113.063 5.32 113.313 5.97 113.313 6.97V8.89H117.243C117.363 9.11 117.473 9.39 117.573 9.73C117.693 10.05 117.753 10.41 117.753 10.81C117.753 11.51 117.593 12.02 117.273 12.34C116.973 12.64 116.563 12.79 116.043 12.79H113.313V17.32Z" fill="white"/>
<path d="M127.759 22.81C126.579 22.81 125.479 22.65 124.459 22.33C123.459 21.99 122.579 21.49 121.819 20.83C121.079 20.17 120.489 19.34 120.049 18.34C119.629 17.34 119.419 16.17 119.419 14.83C119.419 13.51 119.629 12.38 120.049 11.44C120.489 10.48 121.059 9.7 121.759 9.1C122.459 8.48 123.259 8.03 124.159 7.75C125.059 7.45 125.979 7.3 126.919 7.3C127.979 7.3 128.939 7.46 129.799 7.78C130.679 8.1 131.429 8.54 132.049 9.1C132.689 9.66 133.179 10.33 133.519 11.11C133.879 11.89 134.059 12.74 134.059 13.66C134.059 14.34 133.869 14.86 133.489 15.22C133.109 15.58 132.579 15.81 131.899 15.91L124.489 17.02C124.709 17.68 125.159 18.18 125.839 18.52C126.519 18.84 127.299 19 128.179 19C128.999 19 129.769 18.9 130.489 18.7C131.229 18.48 131.829 18.23 132.289 17.95C132.609 18.15 132.879 18.43 133.099 18.79C133.319 19.15 133.429 19.53 133.429 19.93C133.429 20.83 133.009 21.5 132.169 21.94C131.529 22.28 130.809 22.51 130.009 22.63C129.209 22.75 128.459 22.81 127.759 22.81ZM126.919 11.02C126.439 11.02 126.019 11.1 125.659 11.26C125.319 11.42 125.039 11.63 124.819 11.89C124.599 12.13 124.429 12.41 124.309 12.73C124.209 13.03 124.149 13.34 124.129 13.66L129.259 12.82C129.199 12.42 128.979 12.02 128.599 11.62C128.219 11.22 127.659 11.02 126.919 11.02Z" fill="white"/>
<path d="M150.764 19.69C150.664 20.63 150.384 21.35 149.924 21.85C149.484 22.35 148.834 22.6 147.974 22.6C147.334 22.6 146.764 22.45 146.264 22.15C145.764 21.83 145.224 21.3 144.644 20.56L141.674 16.84V22.3C141.454 22.34 141.124 22.39 140.684 22.45C140.264 22.53 139.834 22.57 139.394 22.57C138.954 22.57 138.554 22.54 138.194 22.48C137.854 22.42 137.564 22.3 137.324 22.12C137.084 21.94 136.894 21.7 136.754 21.4C136.634 21.08 136.574 20.67 136.574 20.17V2.8C136.794 2.74 137.114 2.68 137.534 2.62C137.974 2.54 138.414 2.5 138.854 2.5C139.294 2.5 139.684 2.53 140.024 2.59C140.384 2.65 140.684 2.77 140.924 2.95C141.164 3.13 141.344 3.38 141.464 3.7C141.604 4 141.674 4.4 141.674 4.9V12.82L146.834 7.54C147.874 7.54 148.704 7.77 149.324 8.23C149.964 8.69 150.284 9.27 150.284 9.97C150.284 10.27 150.234 10.55 150.134 10.81C150.034 11.05 149.874 11.3 149.654 11.56C149.454 11.82 149.184 12.1 148.844 12.4C148.524 12.68 148.144 13.01 147.704 13.39L145.964 14.89L150.764 19.69Z" fill="white"/>
<path d="M159.453 19.09C159.793 19.09 160.163 19.06 160.563 19C160.983 18.92 161.293 18.82 161.493 18.7V16.3L159.333 16.48C158.773 16.52 158.313 16.64 157.953 16.84C157.593 17.04 157.413 17.34 157.413 17.74C157.413 18.14 157.563 18.47 157.863 18.73C158.183 18.97 158.713 19.09 159.453 19.09ZM159.213 7.3C160.293 7.3 161.273 7.41 162.153 7.63C163.053 7.85 163.813 8.19 164.433 8.65C165.073 9.09 165.563 9.66 165.903 10.36C166.243 11.04 166.413 11.85 166.413 12.79V19.51C166.413 20.03 166.263 20.46 165.963 20.8C165.683 21.12 165.343 21.4 164.943 21.64C163.643 22.42 161.813 22.81 159.453 22.81C158.393 22.81 157.433 22.71 156.573 22.51C155.733 22.31 155.003 22.01 154.383 21.61C153.783 21.21 153.313 20.7 152.973 20.08C152.653 19.46 152.493 18.74 152.493 17.92C152.493 16.54 152.903 15.48 153.723 14.74C154.543 14 155.813 13.54 157.533 13.36L161.463 12.94V12.73C161.463 12.15 161.203 11.74 160.683 11.5C160.183 11.24 159.453 11.11 158.493 11.11C157.733 11.11 156.993 11.19 156.273 11.35C155.553 11.51 154.903 11.71 154.323 11.95C154.063 11.77 153.843 11.5 153.663 11.14C153.483 10.76 153.393 10.37 153.393 9.97C153.393 9.45 153.513 9.04 153.753 8.74C154.013 8.42 154.403 8.15 154.923 7.93C155.503 7.71 156.183 7.55 156.963 7.45C157.763 7.35 158.513 7.3 159.213 7.3Z" fill="white"/>
<path d="M19.82 2H4.18C2.97602 2 2 2.97602 2 4.18V19.82C2 21.024 2.97602 22 4.18 22H19.82C21.024 22 22 21.024 22 19.82V4.18C22 2.97602 21.024 2 19.82 2Z" stroke="#FF6B08" stroke-width="2" stroke-linecap="round" stroke-linejoin="round"/>
<path d="M7 2V22" stroke="#FF6B08" stroke-width="2" stroke-linecap="round" stroke-linejoin="round"/>
<path d="M17 2V22" stroke="#FF6B08" stroke-width="2" stroke-linecap="round" stroke-linejoin="round"/>
<path d="M2 12H22" stroke="#FF6B08" stroke-width="2" stroke-linecap="round" stroke-linejoin="round"/>
<path d="M2 7H7" stroke="#FF6B08" stroke-width="2" stroke-linecap="round" stroke-linejoin="round"/>
<path d="M2 17H7" stroke="#FF6B08" stroke-width="2" stroke-linecap="round" stroke-linejoin="round"/>
<path d="M17 17H22" stroke="#FF6B08" stroke-width="2" stroke-linecap="round" stroke-linejoin="round"/>
<path d="M17 7H22" stroke="#FF6B08" stroke-width="2" stroke-linecap="round" stroke-linejoin="round"/>
</svg>
