<svg width="167" height="24" viewBox="0 0 167 24" fill="none" xmlns="http://www.w3.org/2000/svg">
<path d="M45.8562 4.15C45.9962 4.37 46.1162 4.67 46.2162 5.05C46.3362 5.41 46.3962 5.79 46.3962 6.19C46.3962 6.97 46.2262 7.53 45.8862 7.87C45.5662 8.19 45.1262 8.35 44.5662 8.35H38.2662V11.74H44.8362C44.9962 11.96 45.1262 12.25 45.2262 12.61C45.3462 12.97 45.4062 13.35 45.4062 13.75C45.4062 14.51 45.2362 15.06 44.8962 15.4C44.5762 15.72 44.1362 15.88 43.5762 15.88H38.3262V22.21C38.1062 22.27 37.7562 22.33 37.2762 22.39C36.8162 22.45 36.3562 22.48 35.8962 22.48C35.4362 22.48 35.0262 22.44 34.6662 22.36C34.3262 22.3 34.0362 22.18 33.7962 22C33.5562 21.82 33.3762 21.57 33.2562 21.25C33.1362 20.93 33.0762 20.51 33.0762 19.99V6.94C33.0762 6.08 33.3262 5.4 33.8262 4.9C34.3262 4.4 35.0062 4.15 35.8662 4.15H45.8562Z" fill="white"/>
<path d="M48.2693 3.7C48.2693 2.94 48.5193 2.3 49.0193 1.78C49.5393 1.26 50.2193 1 51.0593 1C51.8993 1 52.5693 1.26 53.0693 1.78C53.5893 2.3 53.8493 2.94 53.8493 3.7C53.8493 4.46 53.5893 5.1 53.0693 5.62C52.5693 6.14 51.8993 6.4 51.0593 6.4C50.2193 6.4 49.5393 6.14 49.0193 5.62C48.5193 5.1 48.2693 4.46 48.2693 3.7ZM53.6093 22.3C53.3893 22.34 53.0593 22.39 52.6193 22.45C52.1993 22.53 51.7693 22.57 51.3293 22.57C50.8893 22.57 50.4893 22.54 50.1293 22.48C49.7893 22.42 49.4993 22.3 49.2593 22.12C49.0193 21.94 48.8293 21.7 48.6893 21.4C48.5693 21.08 48.5093 20.67 48.5093 20.17V7.96C48.7293 7.92 49.0493 7.87 49.4693 7.81C49.9093 7.73 50.3493 7.69 50.7893 7.69C51.2293 7.69 51.6193 7.72 51.9593 7.78C52.3193 7.84 52.6193 7.96 52.8593 8.14C53.0993 8.32 53.2793 8.57 53.3993 8.89C53.5393 9.19 53.6093 9.59 53.6093 10.09V22.3Z" fill="white"/>
<path d="M62.0461 22.3C61.8261 22.34 61.4961 22.39 61.0561 22.45C60.6361 22.53 60.2061 22.57 59.7661 22.57C59.3261 22.57 58.9261 22.54 58.5661 22.48C58.2261 22.42 57.9361 22.3 57.6961 22.12C57.4561 21.94 57.2661 21.7 57.1261 21.4C57.0061 21.08 56.9461 20.67 56.9461 20.17V2.77C57.1661 2.73 57.4861 2.68 57.9061 2.62C58.3461 2.54 58.7861 2.5 59.2261 2.5C59.6661 2.5 60.0561 2.53 60.3961 2.59C60.7561 2.65 61.0561 2.77 61.2961 2.95C61.5361 3.13 61.7161 3.38 61.8361 3.7C61.9761 4 62.0461 4.4 62.0461 4.9V22.3Z" fill="white"/>
<path d="M72.2543 7.3C73.0743 7.3 73.8743 7.42 74.6543 7.66C75.4543 7.88 76.1443 8.22 76.7243 8.68C77.3243 8.28 77.9943 7.95 78.7343 7.69C79.4943 7.43 80.4043 7.3 81.4643 7.3C82.2243 7.3 82.9643 7.4 83.6843 7.6C84.4243 7.8 85.0743 8.12 85.6343 8.56C86.2143 8.98 86.6743 9.55 87.0143 10.27C87.3543 10.97 87.5243 11.83 87.5243 12.85V22.3C87.3243 22.36 87.0043 22.42 86.5643 22.48C86.1443 22.54 85.7043 22.57 85.2443 22.57C84.8043 22.57 84.4043 22.54 84.0443 22.48C83.7043 22.42 83.4143 22.3 83.1743 22.12C82.9343 21.94 82.7443 21.7 82.6043 21.4C82.4843 21.08 82.4243 20.67 82.4243 20.17V13C82.4243 12.4 82.2543 11.97 81.9143 11.71C81.5743 11.43 81.1143 11.29 80.5343 11.29C80.2543 11.29 79.9543 11.36 79.6343 11.5C79.3143 11.62 79.0743 11.75 78.9143 11.89C78.9343 11.97 78.9443 12.05 78.9443 12.13C78.9443 12.19 78.9443 12.25 78.9443 12.31V22.3C78.7243 22.36 78.3943 22.42 77.9543 22.48C77.5343 22.54 77.1043 22.57 76.6643 22.57C76.2243 22.57 75.8243 22.54 75.4643 22.48C75.1243 22.42 74.8343 22.3 74.5943 22.12C74.3543 21.94 74.1643 21.7 74.0243 21.4C73.9043 21.08 73.8443 20.67 73.8443 20.17V13C73.8443 12.4 73.6543 11.97 73.2743 11.71C72.9143 11.43 72.4743 11.29 71.9543 11.29C71.5943 11.29 71.2843 11.35 71.0243 11.47C70.7643 11.57 70.5443 11.67 70.3643 11.77V22.3C70.1643 22.36 69.8443 22.42 69.4043 22.48C68.9843 22.54 68.5443 22.57 68.0843 22.57C67.6443 22.57 67.2443 22.54 66.8843 22.48C66.5443 22.42 66.2543 22.3 66.0143 22.12C65.7743 21.94 65.5843 21.7 65.4443 21.4C65.3243 21.08 65.2643 20.67 65.2643 20.17V11.11C65.2643 10.57 65.3743 10.14 65.5943 9.82C65.8343 9.5 66.1543 9.2 66.5543 8.92C67.2343 8.44 68.0743 8.05 69.0743 7.75C70.0943 7.45 71.1543 7.3 72.2543 7.3Z" fill="white"/>
<path d="M105.725 15.04C105.725 16.28 105.535 17.39 105.155 18.37C104.775 19.33 104.235 20.14 103.535 20.8C102.855 21.46 102.035 21.96 101.075 22.3C100.115 22.64 99.0454 22.81 97.8654 22.81C96.6854 22.81 95.6154 22.63 94.6554 22.27C93.6954 21.91 92.8654 21.4 92.1654 20.74C91.4854 20.06 90.9554 19.24 90.5754 18.28C90.1954 17.32 90.0054 16.24 90.0054 15.04C90.0054 13.86 90.1954 12.79 90.5754 11.83C90.9554 10.87 91.4854 10.06 92.1654 9.4C92.8654 8.72 93.6954 8.2 94.6554 7.84C95.6154 7.48 96.6854 7.3 97.8654 7.3C99.0454 7.3 100.115 7.49 101.075 7.87C102.035 8.23 102.855 8.75 103.535 9.43C104.235 10.09 104.775 10.9 105.155 11.86C105.535 12.82 105.725 13.88 105.725 15.04ZM95.2254 15.04C95.2254 16.26 95.4554 17.2 95.9154 17.86C96.3954 18.5 97.0554 18.82 97.8954 18.82C98.7354 18.82 99.3754 18.49 99.8154 17.83C100.275 17.17 100.505 16.24 100.505 15.04C100.505 13.84 100.275 12.92 99.8154 12.28C99.3554 11.62 98.7054 11.29 97.8654 11.29C97.0254 11.29 96.3754 11.62 95.9154 12.28C95.4554 12.92 95.2254 13.84 95.2254 15.04Z" fill="white"/>
<path d="M113.314 17.32C113.314 17.84 113.474 18.21 113.794 18.43C114.134 18.65 114.604 18.76 115.204 18.76C115.504 18.76 115.814 18.74 116.134 18.7C116.454 18.64 116.734 18.57 116.974 18.49C117.154 18.71 117.304 18.96 117.424 19.24C117.564 19.5 117.634 19.82 117.634 20.2C117.634 20.96 117.344 21.58 116.764 22.06C116.204 22.54 115.204 22.78 113.764 22.78C112.004 22.78 110.644 22.38 109.684 21.58C108.744 20.78 108.274 19.48 108.274 17.68V4.84C108.494 4.78 108.804 4.72 109.204 4.66C109.624 4.58 110.064 4.54 110.524 4.54C111.404 4.54 112.084 4.7 112.564 5.02C113.064 5.32 113.314 5.97 113.314 6.97V8.89H117.244C117.364 9.11 117.474 9.39 117.574 9.73C117.694 10.05 117.754 10.41 117.754 10.81C117.754 11.51 117.594 12.02 117.274 12.34C116.974 12.64 116.564 12.79 116.044 12.79H113.314V17.32Z" fill="white"/>
<path d="M127.759 22.81C126.579 22.81 125.479 22.65 124.459 22.33C123.459 21.99 122.579 21.49 121.819 20.83C121.079 20.17 120.489 19.34 120.049 18.34C119.629 17.34 119.419 16.17 119.419 14.83C119.419 13.51 119.629 12.38 120.049 11.44C120.489 10.48 121.059 9.7 121.759 9.1C122.459 8.48 123.259 8.03 124.159 7.75C125.059 7.45 125.979 7.3 126.919 7.3C127.979 7.3 128.939 7.46 129.799 7.78C130.679 8.1 131.429 8.54 132.049 9.1C132.689 9.66 133.179 10.33 133.519 11.11C133.879 11.89 134.059 12.74 134.059 13.66C134.059 14.34 133.869 14.86 133.489 15.22C133.109 15.58 132.579 15.81 131.899 15.91L124.489 17.02C124.709 17.68 125.159 18.18 125.839 18.52C126.519 18.84 127.299 19 128.179 19C128.999 19 129.769 18.9 130.489 18.7C131.229 18.48 131.829 18.23 132.289 17.95C132.609 18.15 132.879 18.43 133.099 18.79C133.319 19.15 133.429 19.53 133.429 19.93C133.429 20.83 133.009 21.5 132.169 21.94C131.529 22.28 130.809 22.51 130.009 22.63C129.209 22.75 128.459 22.81 127.759 22.81ZM126.919 11.02C126.439 11.02 126.019 11.1 125.659 11.26C125.319 11.42 125.039 11.63 124.819 11.89C124.599 12.13 124.429 12.41 124.309 12.73C124.209 13.03 124.149 13.34 124.129 13.66L129.259 12.82C129.199 12.42 128.979 12.02 128.599 11.62C128.219 11.22 127.659 11.02 126.919 11.02Z" fill="white"/>
<path d="M150.764 19.69C150.664 20.63 150.384 21.35 149.924 21.85C149.484 22.35 148.834 22.6 147.974 22.6C147.334 22.6 146.764 22.45 146.264 22.15C145.764 21.83 145.224 21.3 144.644 20.56L141.674 16.84V22.3C141.454 22.34 141.124 22.39 140.684 22.45C140.264 22.53 139.834 22.57 139.394 22.57C138.954 22.57 138.554 22.54 138.194 22.48C137.854 22.42 137.564 22.3 137.324 22.12C137.084 21.94 136.894 21.7 136.754 21.4C136.634 21.08 136.574 20.67 136.574 20.17V2.8C136.794 2.74 137.114 2.68 137.534 2.62C137.974 2.54 138.414 2.5 138.854 2.5C139.294 2.5 139.684 2.53 140.024 2.59C140.384 2.65 140.684 2.77 140.924 2.95C141.164 3.13 141.344 3.38 141.464 3.7C141.604 4 141.674 4.4 141.674 4.9V12.82L146.834 7.54C147.874 7.54 148.704 7.77 149.324 8.23C149.964 8.69 150.284 9.27 150.284 9.97C150.284 10.27 150.234 10.55 150.134 10.81C150.034 11.05 149.874 11.3 149.654 11.56C149.454 11.82 149.184 12.1 148.844 12.4C148.524 12.68 148.144 13.01 147.704 13.39L145.964 14.89L150.764 19.69Z" fill="white"/>
<path d="M159.454 19.09C159.794 19.09 160.164 19.06 160.564 19C160.984 18.92 161.294 18.82 161.494 18.7V16.3L159.334 16.48C158.774 16.52 158.314 16.64 157.954 16.84C157.594 17.04 157.414 17.34 157.414 17.74C157.414 18.14 157.564 18.47 157.864 18.73C158.184 18.97 158.714 19.09 159.454 19.09ZM159.214 7.3C160.294 7.3 161.274 7.41 162.154 7.63C163.054 7.85 163.814 8.19 164.434 8.65C165.074 9.09 165.564 9.66 165.904 10.36C166.244 11.04 166.414 11.85 166.414 12.79V19.51C166.414 20.03 166.264 20.46 165.964 20.8C165.684 21.12 165.344 21.4 164.944 21.64C163.644 22.42 161.814 22.81 159.454 22.81C158.394 22.81 157.434 22.71 156.574 22.51C155.734 22.31 155.004 22.01 154.384 21.61C153.784 21.21 153.314 20.7 152.974 20.08C152.654 19.46 152.494 18.74 152.494 17.92C152.494 16.54 152.904 15.48 153.724 14.74C154.544 14 155.814 13.54 157.534 13.36L161.464 12.94V12.73C161.464 12.15 161.204 11.74 160.684 11.5C160.184 11.24 159.454 11.11 158.494 11.11C157.734 11.11 156.994 11.19 156.274 11.35C155.554 11.51 154.904 11.71 154.324 11.95C154.064 11.77 153.844 11.5 153.664 11.14C153.484 10.76 153.394 10.37 153.394 9.97C153.394 9.45 153.514 9.04 153.754 8.74C154.014 8.42 154.404 8.15 154.924 7.93C155.504 7.71 156.184 7.55 156.964 7.45C157.764 7.35 158.514 7.3 159.214 7.3Z" fill="white"/>
<path d="M19.82 2H4.18C2.97602 2 2 2.97602 2 4.18V19.82C2 21.024 2.97602 22 4.18 22H19.82C21.024 22 22 21.024 22 19.82V4.18C22 2.97602 21.024 2 19.82 2Z" stroke="#818181" stroke-width="2" stroke-linecap="round" stroke-linejoin="round"/>
<path d="M7 2V22" stroke="#818181" stroke-width="2" stroke-linecap="round" stroke-linejoin="round"/>
<path d="M17 2V22" stroke="#818181" stroke-width="2" stroke-linecap="round" stroke-linejoin="round"/>
<path d="M2 12H22" stroke="#818181" stroke-width="2" stroke-linecap="round" stroke-linejoin="round"/>
<path d="M2 7H7" stroke="#818181" stroke-width="2" stroke-linecap="round" stroke-linejoin="round"/>
<path d="M2 17H7" stroke="#818181" stroke-width="2" stroke-linecap="round" stroke-linejoin="round"/>
<path d="M17 17H22" stroke="#818181" stroke-width="2" stroke-linecap="round" stroke-linejoin="round"/>
<path d="M17 7H22" stroke="#818181" stroke-width="2" stroke-linecap="round" stroke-linejoin="round"/>
</svg>
