<svg width="274" height="398" viewBox="0 0 274 398" fill="none" xmlns="http://www.w3.org/2000/svg">
<rect width="274" height="398" rx="5" fill="#C4C4C4"/>
<path d="M154.977 190.539H119.486C116.754 190.539 114.539 192.753 114.539 195.486V230.976C114.539 233.708 116.754 235.923 119.486 235.923H154.977C157.709 235.923 159.924 233.708 159.924 230.976V195.486C159.924 192.753 157.709 190.539 154.977 190.539Z" stroke="#FF6B08" stroke-width="4.53847" stroke-linecap="round" stroke-linejoin="round"/>
<path d="M125.885 190.539V235.923" stroke="#FF6B08" stroke-width="4.53847" stroke-linecap="round" stroke-linejoin="round"/>
<path d="M148.577 190.539V235.923" stroke="#FF6B08" stroke-width="4.53847" stroke-linecap="round" stroke-linejoin="round"/>
<path d="M114.539 213.231H159.924" stroke="#FF6B08" stroke-width="4.53847" stroke-linecap="round" stroke-linejoin="round"/>
<path d="M114.539 201.885H125.885" stroke="#FF6B08" stroke-width="4.53847" stroke-linecap="round" stroke-linejoin="round"/>
<path d="M114.539 224.577H125.885" stroke="#FF6B08" stroke-width="4.53847" stroke-linecap="round" stroke-linejoin="round"/>
<path d="M148.577 224.577H159.923" stroke="#FF6B08" stroke-width="4.53847" stroke-linecap="round" stroke-linejoin="round"/>
<path d="M148.577 201.885H159.923" stroke="#FF6B08" stroke-width="4.53847" stroke-linecap="round" stroke-linejoin="round"/>
<path d="M56.7617 147.581H43.6662V161H35.5451V127.312H58.0805V133.583H43.6662V141.334H56.7617V147.581ZM69.3251 161H61.5048V135.966H69.3251V161ZM61.0421 129.511C61.0421 128.4 61.4431 127.49 62.2452 126.78C63.0473 126.071 64.0884 125.716 65.3687 125.716C66.6489 125.716 67.6901 126.071 68.4922 126.78C69.2943 127.49 69.6953 128.4 69.6953 129.511C69.6953 130.621 69.2943 131.531 68.4922 132.241C67.6901 132.95 66.6489 133.305 65.3687 133.305C64.0884 133.305 63.0473 132.95 62.2452 132.241C61.4431 131.531 61.0421 130.621 61.0421 129.511ZM82.3744 161H74.5541V125.462H82.3744V161ZM94.5676 135.966L94.8221 138.904C96.596 136.637 98.9791 135.503 101.971 135.503C105.134 135.503 107.27 136.76 108.38 139.274C110.077 136.76 112.53 135.503 115.738 135.503C120.813 135.503 123.419 138.573 123.558 144.712V161H115.738V145.197C115.738 143.917 115.522 142.984 115.09 142.398C114.658 141.812 113.872 141.519 112.73 141.519C111.188 141.519 110.039 142.205 109.283 143.578L109.306 143.902V161H101.486V145.244C101.486 143.933 101.277 142.984 100.861 142.398C100.444 141.812 99.65 141.519 98.4778 141.519C96.9816 141.519 95.8401 142.205 95.0535 143.578V161H87.2563V135.966H94.5676ZM127.029 148.252C127.029 145.753 127.515 143.532 128.486 141.588C129.458 139.629 130.854 138.125 132.674 137.076C134.494 136.027 136.631 135.503 139.083 135.503C142.831 135.503 145.785 136.668 147.945 138.997C150.104 141.31 151.184 144.465 151.184 148.46V148.737C151.184 152.64 150.096 155.74 147.922 158.038C145.762 160.321 142.831 161.463 139.13 161.463C135.566 161.463 132.705 160.398 130.546 158.27C128.386 156.126 127.222 153.226 127.052 149.57L127.029 148.252ZM134.826 148.737C134.826 151.051 135.189 152.748 135.913 153.828C136.638 154.907 137.71 155.447 139.13 155.447C141.906 155.447 143.325 153.311 143.387 149.038V148.252C143.387 143.763 141.952 141.519 139.083 141.519C136.476 141.519 135.065 143.454 134.849 147.326L134.826 148.737ZM163.701 129.742V135.966H167.819V141.38H163.701V152.833C163.701 153.774 163.871 154.429 164.21 154.799C164.549 155.169 165.22 155.355 166.223 155.355C166.994 155.355 167.642 155.308 168.166 155.216V160.792C166.763 161.239 165.297 161.463 163.77 161.463C161.087 161.463 159.104 160.83 157.824 159.566C156.544 158.301 155.904 156.38 155.904 153.804V141.38H152.711V135.966H155.904V129.742H163.701ZM183.02 161.463C179.18 161.463 176.072 160.321 173.696 158.038C171.321 155.74 170.133 152.756 170.133 149.084V148.437C170.133 145.876 170.604 143.616 171.544 141.657C172.501 139.699 173.889 138.187 175.709 137.123C177.529 136.043 179.689 135.503 182.188 135.503C185.704 135.503 188.481 136.598 190.517 138.788C192.553 140.963 193.571 144.002 193.571 147.904V150.935H178.069C178.347 152.339 178.956 153.442 179.897 154.244C180.838 155.046 182.056 155.447 183.553 155.447C186.021 155.447 187.949 154.583 189.337 152.856L192.9 157.067C191.928 158.409 190.548 159.481 188.758 160.283C186.985 161.069 185.072 161.463 183.02 161.463ZM182.141 141.519C179.858 141.519 178.501 143.03 178.069 146.053H185.936V145.452C185.967 144.203 185.65 143.238 184.987 142.56C184.324 141.866 183.375 141.519 182.141 141.519ZM206.782 151.676L204.584 153.874V161H196.787V125.438H204.584V144.318L205.371 143.277L211.248 135.966H220.595L211.826 146.262L221.173 161H212.242L206.782 151.676ZM236.745 161C236.467 160.491 236.22 159.743 236.004 158.756C234.57 160.56 232.565 161.463 229.989 161.463C227.629 161.463 225.623 160.753 223.973 159.334C222.323 157.9 221.497 156.103 221.497 153.943C221.497 151.228 222.5 149.177 224.505 147.789C226.51 146.401 229.426 145.706 233.251 145.706H235.657V144.388C235.657 142.089 234.662 140.94 232.672 140.94C230.822 140.94 229.896 141.85 229.896 143.67H222.099C222.099 141.249 223.125 139.282 225.176 137.77C227.243 136.259 229.873 135.503 233.066 135.503C236.259 135.503 238.781 136.282 240.632 137.84C242.483 139.398 243.431 141.534 243.477 144.249V155.331C243.508 157.63 243.863 159.388 244.542 160.607V161H236.745ZM231.863 155.91C232.834 155.91 233.637 155.702 234.269 155.285C234.917 154.869 235.38 154.398 235.657 153.874V149.871H233.39C230.675 149.871 229.318 151.09 229.318 153.527C229.318 154.236 229.557 154.815 230.035 155.262C230.513 155.694 231.122 155.91 231.863 155.91Z" fill="white"/>
</svg>
